<svg id="visual" viewBox="0 0 675 900" width="675" height="900" xmlns="http://www.w3.org/2000/svg" xmlns:xlink="http://www.w3.org/1999/xlink" version="1.1"><path d="M0 419L28.2 410.7C56.3 402.3 112.7 385.7 169 396C225.3 406.3 281.7 443.7 337.8 434.2C394 424.7 450 368.3 506.2 345.2C562.3 322 618.7 332 646.8 337L675 342L675 901L646.8 901C618.7 901 562.3 901 506.2 901C450 901 394 901 337.8 901C281.7 901 225.3 901 169 901C112.7 901 56.3 901 28.2 901L0 901Z" fill="#3bb1b9"></path><path d="M0 430L28.2 426.3C56.3 422.7 112.7 415.3 169 424.3C225.3 433.3 281.7 458.7 337.8 475.3C394 492 450 500 506.2 489.2C562.3 478.3 618.7 448.7 646.8 433.8L675 419L675 901L646.8 901C618.7 901 562.3 901 506.2 901C450 901 394 901 337.8 901C281.7 901 225.3 901 169 901C112.7 901 56.3 901 28.2 901L0 901Z" fill="#00a5bd"></path><path d="M0 511L28.2 506.8C56.3 502.7 112.7 494.3 169 491.7C225.3 489 281.7 492 337.8 485.8C394 479.7 450 464.3 506.2 453.3C562.3 442.3 618.7 435.7 646.8 432.3L675 429L675 901L646.8 901C618.7 901 562.3 901 506.2 901C450 901 394 901 337.8 901C281.7 901 225.3 901 169 901C112.7 901 56.3 901 28.2 901L0 901Z" fill="#0099bf"></path><path d="M0 443L28.2 445.3C56.3 447.7 112.7 452.3 169 460.5C225.3 468.7 281.7 480.3 337.8 493.3C394 506.3 450 520.7 506.2 513.5C562.3 506.3 618.7 477.7 646.8 463.3L675 449L675 901L646.8 901C618.7 901 562.3 901 506.2 901C450 901 394 901 337.8 901C281.7 901 225.3 901 169 901C112.7 901 56.3 901 28.2 901L0 901Z" fill="#008bc0"></path><path d="M0 517L28.2 525.5C56.3 534 112.7 551 169 565.8C225.3 580.7 281.7 593.3 337.8 584.2C394 575 450 544 506.2 540.3C562.3 536.7 618.7 560.3 646.8 572.2L675 584L675 901L646.8 901C618.7 901 562.3 901 506.2 901C450 901 394 901 337.8 901C281.7 901 225.3 901 169 901C112.7 901 56.3 901 28.2 901L0 901Z" fill="#007dbe"></path><path d="M0 610L28.2 612.7C56.3 615.3 112.7 620.7 169 616.5C225.3 612.3 281.7 598.7 337.8 603.2C394 607.7 450 630.3 506.2 625.8C562.3 621.3 618.7 589.7 646.8 573.8L675 558L675 901L646.8 901C618.7 901 562.3 901 506.2 901C450 901 394 901 337.8 901C281.7 901 225.3 901 169 901C112.7 901 56.3 901 28.2 901L0 901Z" fill="#006db8"></path><path d="M0 692L28.2 685.5C56.3 679 112.7 666 169 666.5C225.3 667 281.7 681 337.8 683.7C394 686.3 450 677.7 506.2 670.5C562.3 663.3 618.7 657.7 646.8 654.8L675 652L675 901L646.8 901C618.7 901 562.3 901 506.2 901C450 901 394 901 337.8 901C281.7 901 225.3 901 169 901C112.7 901 56.3 901 28.2 901L0 901Z" fill="#005db2"></path><path d="M0 762L28.2 748.5C56.3 735 112.7 708 169 701.2C225.3 694.3 281.7 707.7 337.8 717.2C394 726.7 450 732.3 506.2 731C562.3 729.7 618.7 721.3 646.8 717.2L675 713L675 901L646.8 901C618.7 901 562.3 901 506.2 901C450 901 394 901 337.8 901C281.7 901 225.3 901 169 901C112.7 901 56.3 901 28.2 901L0 901Z" fill="#004da9"></path><path d="M0 797L28.2 793.8C56.3 790.7 112.7 784.3 169 778.7C225.3 773 281.7 768 337.8 766C394 764 450 765 506.2 768C562.3 771 618.7 776 646.8 778.5L675 781L675 901L646.8 901C618.7 901 562.3 901 506.2 901C450 901 394 901 337.8 901C281.7 901 225.3 901 169 901C112.7 901 56.3 901 28.2 901L0 901Z" fill="#013c9f"></path><path d="M0 794L28.2 801.8C56.3 809.7 112.7 825.3 169 825.2C225.3 825 281.7 809 337.8 806.3C394 803.7 450 814.3 506.2 814.8C562.3 815.3 618.7 805.7 646.8 800.8L675 796L675 901L646.8 901C618.7 901 562.3 901 506.2 901C450 901 394 901 337.8 901C281.7 901 225.3 901 169 901C112.7 901 56.3 901 28.2 901L0 901Z" fill="#1e2892"></path></svg>