<svg id="visual" viewBox="0 0 675 900" width="675" height="900" xmlns="http://www.w3.org/2000/svg" xmlns:xlink="http://www.w3.org/1999/xlink" version="1.1"><rect x="0" y="0" width="675" height="900" fill="#140021"></rect><path d="M0 378L96 378L96 512L193 512L193 547L289 547L289 494L386 494L386 396L482 396L482 419L579 419L579 470L675 470L675 568L675 901L675 901L579 901L579 901L482 901L482 901L386 901L386 901L289 901L289 901L193 901L193 901L96 901L96 901L0 901Z" fill="#9900ff"></path><path d="M0 672L96 672L96 632L193 632L193 529L289 529L289 664L386 664L386 678L482 678L482 684L579 684L579 642L675 642L675 608L675 901L675 901L579 901L579 901L482 901L482 901L386 901L386 901L289 901L289 901L193 901L193 901L96 901L96 901L0 901Z" fill="#7700c6"></path><path d="M0 809L96 809L96 760L193 760L193 664L289 664L289 742L386 742L386 727L482 727L482 773L579 773L579 812L675 812L675 789L675 901L675 901L579 901L579 901L482 901L482 901L386 901L386 901L289 901L289 901L193 901L193 901L96 901L96 901L0 901Z" fill="#560090"></path></svg>