<svg id="visual" viewBox="0 0 900 600" width="900" height="600" xmlns="http://www.w3.org/2000/svg" xmlns:xlink="http://www.w3.org/1999/xlink" version="1.1"><path d="M75 600L73 600L73 574L67 574L67 548L83 548L83 522L102 522L102 496L66 496L66 470L24 470L24 443L117 443L117 417L104 417L104 391L121 391L121 365L33 365L33 339L59 339L59 313L118 313L118 287L37 287L37 261L121 261L121 235L74 235L74 209L60 209L60 183L54 183L54 157L74 157L74 130L84 130L84 104L119 104L119 78L39 78L39 52L91 52L91 26L53 26L53 0L900 0L900 26L900 26L900 52L900 52L900 78L900 78L900 104L900 104L900 130L900 130L900 157L900 157L900 183L900 183L900 209L900 209L900 235L900 235L900 261L900 261L900 287L900 287L900 313L900 313L900 339L900 339L900 365L900 365L900 391L900 391L900 417L900 417L900 443L900 443L900 470L900 470L900 496L900 496L900 522L900 522L900 548L900 548L900 574L900 574L900 600L900 600Z" fill="#9900ff"></path><path d="M101 600L144 600L144 574L113 574L113 548L153 548L153 522L174 522L174 496L165 496L165 470L141 470L141 443L154 443L154 417L147 417L147 391L163 391L163 365L197 365L197 339L185 339L185 313L101 313L101 287L197 287L197 261L181 261L181 235L149 235L149 209L192 209L192 183L110 183L110 157L99 157L99 130L192 130L192 104L162 104L162 78L100 78L100 52L186 52L186 26L169 26L169 0L900 0L900 26L900 26L900 52L900 52L900 78L900 78L900 104L900 104L900 130L900 130L900 157L900 157L900 183L900 183L900 209L900 209L900 235L900 235L900 261L900 261L900 287L900 287L900 313L900 313L900 339L900 339L900 365L900 365L900 391L900 391L900 417L900 417L900 443L900 443L900 470L900 470L900 496L900 496L900 522L900 522L900 548L900 548L900 574L900 574L900 600L900 600Z" fill="#9200f3"></path><path d="M207 600L227 600L227 574L260 574L260 548L212 548L212 522L265 522L265 496L186 496L186 470L237 470L237 443L208 443L208 417L187 417L187 391L193 391L193 365L224 365L224 339L240 339L240 313L229 313L229 287L234 287L234 261L202 261L202 235L266 235L266 209L201 209L201 183L213 183L213 157L242 157L242 130L240 130L240 104L266 104L266 78L229 78L229 52L209 52L209 26L237 26L237 0L900 0L900 26L900 26L900 52L900 52L900 78L900 78L900 104L900 104L900 130L900 130L900 157L900 157L900 183L900 183L900 209L900 209L900 235L900 235L900 261L900 261L900 287L900 287L900 313L900 313L900 339L900 339L900 365L900 365L900 391L900 391L900 417L900 417L900 443L900 443L900 470L900 470L900 496L900 496L900 522L900 522L900 548L900 548L900 574L900 574L900 600L900 600Z" fill="#8b00e8"></path><path d="M254 600L312 600L312 574L249 574L249 548L258 548L258 522L256 522L256 496L282 496L282 470L333 470L333 443L295 443L295 417L346 417L346 391L304 391L304 365L296 365L296 339L288 339L288 313L326 313L326 287L327 287L327 261L288 261L288 235L256 235L256 209L272 209L272 183L249 183L249 157L323 157L323 130L299 130L299 104L300 104L300 78L258 78L258 52L283 52L283 26L274 26L274 0L900 0L900 26L900 26L900 52L900 52L900 78L900 78L900 104L900 104L900 130L900 130L900 157L900 157L900 183L900 183L900 209L900 209L900 235L900 235L900 261L900 261L900 287L900 287L900 313L900 313L900 339L900 339L900 365L900 365L900 391L900 391L900 417L900 417L900 443L900 443L900 470L900 470L900 496L900 496L900 522L900 522L900 548L900 548L900 574L900 574L900 600L900 600Z" fill="#8400dc"></path><path d="M395 600L390 600L390 574L403 574L403 548L337 548L337 522L383 522L383 496L388 496L388 470L382 470L382 443L426 443L426 417L410 417L410 391L374 391L374 365L408 365L408 339L421 339L421 313L360 313L360 287L362 287L362 261L337 261L337 235L422 235L422 209L340 209L340 183L405 183L405 157L396 157L396 130L421 130L421 104L383 104L383 78L414 78L414 52L414 52L414 26L374 26L374 0L900 0L900 26L900 26L900 52L900 52L900 78L900 78L900 104L900 104L900 130L900 130L900 157L900 157L900 183L900 183L900 209L900 209L900 235L900 235L900 261L900 261L900 287L900 287L900 313L900 313L900 339L900 339L900 365L900 365L900 391L900 391L900 417L900 417L900 443L900 443L900 470L900 470L900 496L900 496L900 522L900 522L900 548L900 548L900 574L900 574L900 600L900 600Z" fill="#7e00d1"></path><path d="M410 600L451 600L451 574L469 574L469 548L453 548L453 522L406 522L406 496L410 496L410 470L468 470L468 443L416 443L416 417L448 417L448 391L446 391L446 365L499 365L499 339L445 339L445 313L430 313L430 287L467 287L467 261L456 261L456 235L496 235L496 209L483 209L483 183L501 183L501 157L403 157L403 130L482 130L482 104L449 104L449 78L411 78L411 52L432 52L432 26L462 26L462 0L900 0L900 26L900 26L900 52L900 52L900 78L900 78L900 104L900 104L900 130L900 130L900 157L900 157L900 183L900 183L900 209L900 209L900 235L900 235L900 261L900 261L900 287L900 287L900 313L900 313L900 339L900 339L900 365L900 365L900 391L900 391L900 417L900 417L900 443L900 443L900 470L900 470L900 496L900 496L900 522L900 522L900 548L900 548L900 574L900 574L900 600L900 600Z" fill="#7700c6"></path><path d="M522 600L569 600L569 574L537 574L537 548L555 548L555 522L544 522L544 496L534 496L534 470L478 470L478 443L481 443L481 417L562 417L562 391L514 391L514 365L572 365L572 339L477 339L477 313L558 313L558 287L501 287L501 261L483 261L483 235L563 235L563 209L476 209L476 183L495 183L495 157L543 157L543 130L492 130L492 104L544 104L544 78L527 78L527 52L563 52L563 26L570 26L570 0L900 0L900 26L900 26L900 52L900 52L900 78L900 78L900 104L900 104L900 130L900 130L900 157L900 157L900 183L900 183L900 209L900 209L900 235L900 235L900 261L900 261L900 287L900 287L900 313L900 313L900 339L900 339L900 365L900 365L900 391L900 391L900 417L900 417L900 443L900 443L900 470L900 470L900 496L900 496L900 522L900 522L900 548L900 548L900 574L900 574L900 600L900 600Z" fill="#7000bb"></path><path d="M616 600L577 600L577 574L616 574L616 548L637 548L637 522L549 522L549 496L573 496L573 470L567 470L567 443L587 443L587 417L590 417L590 391L611 391L611 365L574 365L574 339L633 339L633 313L640 313L640 287L563 287L563 261L610 261L610 235L577 235L577 209L638 209L638 183L641 183L641 157L616 157L616 130L621 130L621 104L550 104L550 78L652 78L652 52L629 52L629 26L615 26L615 0L900 0L900 26L900 26L900 52L900 52L900 78L900 78L900 104L900 104L900 130L900 130L900 157L900 157L900 183L900 183L900 209L900 209L900 235L900 235L900 261L900 261L900 287L900 287L900 313L900 313L900 339L900 339L900 365L900 365L900 391L900 391L900 417L900 417L900 443L900 443L900 470L900 470L900 496L900 496L900 522L900 522L900 548L900 548L900 574L900 574L900 600L900 600Z" fill="#6a00b0"></path><path d="M698 600L670 600L670 574L699 574L699 548L693 548L693 522L626 522L626 496L660 496L660 470L655 470L655 443L720 443L720 417L628 417L628 391L700 391L700 365L707 365L707 339L697 339L697 313L712 313L712 287L649 287L649 261L718 261L718 235L650 235L650 209L716 209L716 183L724 183L724 157L651 157L651 130L710 130L710 104L705 104L705 78L673 78L673 52L666 52L666 26L677 26L677 0L900 0L900 26L900 26L900 52L900 52L900 78L900 78L900 104L900 104L900 130L900 130L900 157L900 157L900 183L900 183L900 209L900 209L900 235L900 235L900 261L900 261L900 287L900 287L900 313L900 313L900 339L900 339L900 365L900 365L900 391L900 391L900 417L900 417L900 443L900 443L900 470L900 470L900 496L900 496L900 522L900 522L900 548L900 548L900 574L900 574L900 600L900 600Z" fill="#6300a5"></path><path d="M781 600L796 600L796 574L773 574L773 548L739 548L739 522L780 522L780 496L783 496L783 470L756 470L756 443L787 443L787 417L709 417L709 391L784 391L784 365L755 365L755 339L735 339L735 313L716 313L716 287L711 287L711 261L711 261L711 235L724 235L724 209L709 209L709 183L761 183L761 157L731 157L731 130L744 130L744 104L780 104L780 78L723 78L723 52L800 52L800 26L704 26L704 0L900 0L900 26L900 26L900 52L900 52L900 78L900 78L900 104L900 104L900 130L900 130L900 157L900 157L900 183L900 183L900 209L900 209L900 235L900 235L900 261L900 261L900 287L900 287L900 313L900 313L900 339L900 339L900 365L900 365L900 391L900 391L900 417L900 417L900 443L900 443L900 470L900 470L900 496L900 496L900 522L900 522L900 548L900 548L900 574L900 574L900 600L900 600Z" fill="#5c009b"></path><path d="M859 600L819 600L819 574L861 574L861 548L775 548L775 522L874 522L874 496L828 496L828 470L783 470L783 443L799 443L799 417L804 417L804 391L790 391L790 365L806 365L806 339L843 339L843 313L812 313L812 287L837 287L837 261L854 261L854 235L777 235L777 209L856 209L856 183L780 183L780 157L837 157L837 130L840 130L840 104L834 104L834 78L852 78L852 52L810 52L810 26L864 26L864 0L900 0L900 26L900 26L900 52L900 52L900 78L900 78L900 104L900 104L900 130L900 130L900 157L900 157L900 183L900 183L900 209L900 209L900 235L900 235L900 261L900 261L900 287L900 287L900 313L900 313L900 339L900 339L900 365L900 365L900 391L900 391L900 417L900 417L900 443L900 443L900 470L900 470L900 496L900 496L900 522L900 522L900 548L900 548L900 574L900 574L900 600L900 600Z" fill="#560090"></path></svg>